<svg id="Layer_1" data-name="Layer 1" xmlns="http://www.w3.org/2000/svg" viewBox="0 0 300 300"><defs><style>.cls-1{fill:#d5d3dd}.cls-2{fill:#e2cbb5}.cls-3{fill:#fff}.cls-4{fill:#9fa628}.cls-5{fill:#bf6c35}.cls-6{fill:#663f4c}</style></defs><g id="Logo_Layered_for-White-BG" data-name="Logo Layered for-White-BG"><g id="Human"><g id="Teeth"><path class="cls-1" d="M250 82v3a3 3 0 006 0v-3zM238 82v3a3 3 0 006 0v-3zM226 82v3a3 3 0 006 0v-3zM214 82v3a3 3 0 006 0v-3zM244 102v-3a3 3 0 016 0v3zM232 102v-3a3 3 0 016 0v3zM220 102v-3a3 3 0 016 0v3zM208 102v-3a3 3 0 016 0v3z"/></g><path id="Body" class="cls-2" d="M298.83 208L284 193.17V188a28.13 28.13 0 00-24-27.71V156h4a28 28 0 0028-28v-28a4 4 0 00-8 0v1a1 1 0 01-2 0v-1a4 4 0 00-8 0v1a1 1 0 01-2 0v-1a4 4 0 00-8 0v24a4 4 0 01-4 4v-28h-52a8 8 0 010-16h52v-6.26a8 8 0 000-15.48V52l-5-5h-62l-5 5v10.26a8 8 0 000 15.48V128a4 4 0 01-4-4v-24a4 4 0 00-8 0v1a1 1 0 01-2 0v-1a4 4 0 00-8 0v1a1 1 0 01-2 0v-1a4 4 0 00-8 0v28a28 28 0 0028 28h4v16a4 4 0 01-4 4h-16v42.83L182.83 204H188a27.92 27.92 0 0025.3-16H252a4 4 0 014 4v16z"/><g id="Eye_Left" data-name="Eye Left"><circle class="cls-3" cx="212" cy="66" r="9"/><circle class="cls-4" cx="212" cy="66" r="5"/></g><g id="Eye_Right" data-name="Eye Right"><circle class="cls-3" cx="236" cy="66" r="9"/><circle class="cls-4" cx="236" cy="66" r="5"/></g><path class="cls-5" d="M188 48c0-15.25 8.75-24 24-24h24c15.25 0 24 8.75 24 24v4c-1.75 0-2.38-1-3-2s-1.25-2-3-2-2.38 1-3 2-1.25 2-3 2-2.38-1-3-2-1.25-2-3-2-2.38 1-3 2-1.25 2-3 2-2.38-1-3-2-1.25-2-3-2-2.38 1-3 2-1.25 2-3 2-2.38-1-3-2-1.25-2-3-2-2.38 1-3 2-1.25 2-3 2-2.38-1-3-2-1.25-2-3-2-2.38 1-3 2-1.25 2-3 2-2.38-1-3-2-1.25-2-3-2-2.38 1-3 2-1.25 2-3 2z"/></g><g id="Martian"><g id="Teeth-2" data-name="Teeth"><path class="cls-1" d="M96 100l-4-8-4 8 4 2 4-2zM84 100l-4-8-4 8 4 2 4-2zM72 100l-4-8-4 8 4 2 4-2zM60 100l-4-8-4 8 4 2 4-2zM48 100l-4-8-4 8 4 2 4-2zM90 84l-4 8-4-8 4-2 4 2zM78 84l-4 8-4-8 4-2 4 2zM66 84l-4 8-4-8 4-2 4 2zM54 84l-4 8-4-8 4-2 4 2z"/></g><g id="Thorns"><path class="cls-2" d="M28 167.4L3.88 154 28 140.6v26.8z"/><path class="cls-2" d="M28 147.4L3.88 134 28 120.6v26.8z"/><path class="cls-2" d="M28 127.4L3.88 114 28 100.6v26.8z"/><path class="cls-2" d="M28 107.4L3.88 94 28 80.6v26.8z"/></g><path id="Body-2" data-name="Body" class="cls-4" d="M44 100a8 8 0 010-16h52V48c0-6.75-1.72-12.22-5-16.22l5.29-5.29A10.61 10.61 0 00102 28a2 2 0 000-4c-3.81 0-6-2.19-6-6a2 2 0 00-4 0 10.61 10.61 0 001.51 5.66L88.22 29c-4-3.28-9.47-5-16.22-5H48c-6.75 0-12.22 1.72-16.22 5l-5.29-5.29A10.61 10.61 0 0028 18a2 2 0 00-4 0c0 3.81-2.19 6-6 6a2 2 0 000 4 10.61 10.61 0 005.66-1.51L29 31.78c-3.28 4-5 9.47-5 16.22v124a4 4 0 01-4 4H4v42.83L18.83 204H24a27.92 27.92 0 0025.3-16H88a4 4 0 014 4v16h42.83L120 193.17V188a28.13 28.13 0 00-24-27.71V160h51.7l-11.58-9.27 14.2-4.73-14.2-4.73L147.7 132H96v-4h51.7l-11.58-9.27 14.2-4.73-14.2-4.73L147.7 100z"/><g id="Eye_Left-2" data-name="Eye Left"><circle class="cls-3" cx="48" cy="66" r="9"/><circle class="cls-5" cx="48" cy="66" r="5"/></g><g id="Eye_Right-2" data-name="Eye Right"><circle class="cls-3" cx="72" cy="66" r="9"/><circle class="cls-5" cx="72" cy="66" r="5"/></g></g><g id="Label"><path id="E" class="cls-6" d="M4 266a14 14 0 0014 14h8v-7h-8a6 6 0 01-6-6v-12h12v-7H12v-9h14v-7H4z"/><path id="V" class="cls-6" d="M44 267a6 6 0 01-6 6h-2v-41h-8v48h10a14 14 0 0014-14v-34h-8z"/><path id="I" class="cls-6" d="M54 232h8v48h-8z"/><path id="L" class="cls-6" d="M72 232h-8v48h20v-7H72v-41z"/><path id="M" class="cls-6" d="M114 237.24a13.18 13.18 0 00-10-5.24H94v48h8v-41h2a6 6 0 016 6v35h8v-35a6 6 0 016-6h2v41h8v-48h-10a13.18 13.18 0 00-10 5.24z"/><path id="A" class="cls-6" d="M136 246v34h8v-17h8v17h8v-48h-10a14 14 0 00-14 14zm16 10h-8v-11a6 6 0 016-6h2z"/><path id="R" class="cls-6" d="M172 232h-10v48h8v-17h2a6 6 0 016 6v11h8v-10a12.4 12.4 0 00-5.54-10.5A12.4 12.4 0 00186 249v-3a14 14 0 00-14-14zm6 18a6 6 0 01-6 6h-2v-17h2a6 6 0 016 6z"/><path id="T" class="cls-6" d="M188 239h6v41h8v-41h6v-7h-20v7z"/><path id="I-2" data-name="I" class="cls-6" d="M210 232h8v48h-8z"/><path id="A-2" data-name="A" class="cls-6" d="M220 246v34h8v-16h8v16h8v-48h-10a14 14 0 00-14 14zm16 11h-8v-12a6 6 0 016-6h2z"/><path id="N" class="cls-6" d="M262 237.64a15.64 15.64 0 00-12-5.64h-4v48h8v-39.35c4.12 1.71 8 6.53 8 11.35v28h8v-48h-8z"/><path id="S" class="cls-6" d="M296 248v-4c0-9-4.28-13-12-13s-12 5.28-12 13c0 15 16 15.06 16 24v1c0 3-1 5-4 5s-4-2-4-5v-5h-8v4c0 9.08 4.28 13 12 13s12-5.28 12-13c0-14.94-16-15-16-24v-1c0-3 1-5 4-5s4 2 4 5v5z"/></g></g></svg>
