<svg enable-background="new 0 0 300 300" viewBox="0 0 300 300" xmlns="http://www.w3.org/2000/svg"><path d="m294 206-12-12v-6c0-13.7-10.6-24.9-24-25.9v-8.1h6c14.4 0 26-11.6 26-26v-26c0-2.2-1.8-4-4-4s-4 1.8-4 4c0-2.2-1.8-4-4-4s-4 1.8-4 4c0-2.2-1.8-4-4-4s-4 1.8-4 4v22c0 3.3-2.7 6-6 6h-2v-28h-50c-5.5 0-10-4.5-10-10s4.5-10 10-10h50v-4c4.4 0 8-3.6 8-8s-3.6-8-8-8v-14c0-14-7.9-22-22-22h-24c-14.1 0-22 8-22 22v14c-4.4 0-8 3.6-8 8s3.6 8 8 8v52h-2c-3.3 0-6-2.7-6-6v-22c0-2.2-1.8-4-4-4s-4 1.8-4 4c0-2.2-1.8-4-4-4s-4 1.8-4 4c0-2.2-1.8-4-4-4s-4 1.8-4 4v26c0 14.4 11.6 26 26 26h6v16 2c0 3.3-2.7 6-6 6h-14v36l12-12h6c10.8 0 20.1-6.6 24-16h38 2c3.3 0 6 2.7 6 6v14z" fill="#e2cbb5"/><path d="m26 164-18-10 18-10z" fill="#e2cbb5"/><path d="m26 144-18-10 18-10z" fill="#e2cbb5"/><path d="m26 124-18-10 18-10z" fill="#e2cbb5"/><path d="m26 104-18-10 18-10z" fill="#e2cbb5"/><circle cx="212" cy="66" fill="#fff" r="8"/><circle cx="236" cy="66" fill="#fff" r="8"/><circle cx="212" cy="66" fill="#9fa628" r="4"/><circle cx="236" cy="66" fill="#9fa628" r="4"/><path d="m44 102c-5.5 0-10-4.5-10-10s4.5-10 10-10h50v-34c0-14-7.9-22-22-22h-24c-14.1 0-22 8-22 22v124c0 3.3-2.7 6-6 6h-14v36l12-12h6c10.8 0 20.1-6.6 24-16h40c3.3 0 6 2.7 6 6v14h36l-12-12v-6c0-13.7-10.6-24.9-24-25.9v-4.1h48l-10-8 12-4-12-4 10-8h-48v-8h48l-10-8 12-4-12-4 10-8z" fill="#9fa628"/><circle cx="48" cy="66" fill="#fff" r="8"/><circle cx="72" cy="66" fill="#fff" r="8"/><path d="m236 26h-24c-14.1 0-22 8-22 22v2l4-4 6 6 6-6 6 6 6-6 6 6 6-6 6 6 6-6 6 6 6-6 4 4v-2c0-14-7.9-22-22-22z" fill="#bf6c35"/><circle cx="48" cy="66" fill="#bf6c35" r="4"/><circle cx="72" cy="66" fill="#bf6c35" r="4"/><g fill="#663f4c"><path d="m212 76c-5.5 0-10-4.5-10-10s4.5-10 10-10 10 4.5 10 10-4.5 10-10 10zm0-16c-3.3 0-6 2.7-6 6s2.7 6 6 6 6-2.7 6-6-2.7-6-6-6z"/><path d="m236 76c-5.5 0-10-4.5-10-10s4.5-10 10-10 10 4.5 10 10-4.5 10-10 10zm0-16c-3.3 0-6 2.7-6 6s2.7 6 6 6 6-2.7 6-6-2.7-6-6-6z"/><path d="m298.8 208-14.8-14.8v-5.2c0-13.9-10.4-25.8-24-27.7v-4.3h4c15.4 0 28-12.6 28-28v-26c0-3.3-2.7-6-6-6-1.5 0-2.9.6-4 1.5-1.1-1-2.5-1.5-4-1.5s-2.9.6-4 1.5c-1.1-1-2.5-1.5-4-1.5-3.3 0-6 2.7-6 6v22c0 2.2-1.8 4-4 4v-28h-10v-1c0-1.7-1.3-3-3-3s-3 1.3-3 3v1h-6v-1c0-1.7-1.3-3-3-3s-3 1.3-3 3v1h-6v-1c0-1.7-1.3-3-3-3s-3 1.3-3 3v1h-6v-1c0-1.7-1.3-3-3-3s-3 1.3-3 3v1c-4.4 0-8-3.6-8-8s3.6-8 8-8h6v1c0 1.7 1.3 3 3 3s3-1.3 3-3v-1h6v1c0 1.7 1.3 3 3 3s3-1.3 3-3v-1h6v1c0 1.7 1.3 3 3 3s3-1.3 3-3v-1h6v1c0 1.7 1.3 3 3 3s3-1.3 3-3v-1h4v-4.2c4.6-.9 8-5 8-9.8s-3.4-8.9-8-9.8v-12.2c0-15.3-8.7-24-24-24h-24c-15.3 0-24 8.7-24 24v12.2c-4.6.9-8 5-8 9.8s3.4 8.9 8 9.8v48.2c-2.2 0-4-1.8-4-4v-22c0-3.3-2.7-6-6-6-1.5 0-2.9.6-4 1.5-1.1-1-2.5-1.5-4-1.5s-2.9.6-4 1.5c-1.1-1-2.5-1.5-4-1.5-3.3 0-6 2.7-6 6v26c0 15.4 12.6 28 28 28h4v16c0 2.2-1.8 4-4 4h-16v42.8l14.8-14.8h5.2c10.9 0 20.7-6.2 25.3-16h38.7c2.2 0 4 1.8 4 4v16zm-38.8-76c4.4 0 8-3.6 8-8v-22c0-1.1.9-2 2-2s2 .9 2 2 .9 2 2 2 2-.9 2-2 .9-2 2-2 2 .9 2 2 .9 2 2 2 2-.9 2-2 .9-2 2-2 2 .9 2 2v26c0 13.2-10.8 24-24 24h-4zm0-67.7c2.3.8 4 3 4 5.7s-1.7 4.8-4 5.7zm-76 5.7c0-2.6 1.7-4.8 4-5.7v11.3c-2.3-.8-4-3-4-5.6zm68 114h-41.3l-.5 1.2c-3.7 9-12.4 14.8-22.2 14.8h-6.8l-9.2 9.2v-29.2h12c4.4 0 8-3.6 8-8v-20h-8c-13.2 0-24-10.8-24-24v-26c0-1.1.9-2 2-2s2 .9 2 2 .9 2 2 2 2-.9 2-2 .9-2 2-2 2 .9 2 2 .9 2 2 2 2-.9 2-2 .9-2 2-2 2 .9 2 2v22c0 4.4 3.6 8 8 8h4v-84c0-12.9 7.1-20 20-20h24c12.9 0 20 7.1 20 20v32h-48c-6.6 0-12 5.4-12 12s5.4 12 12 12h48v59.9l1.8.1c12.5 1 22.2 11.5 22.2 24v6.8l9.2 9.2h-29.2v-12c0-4.4-3.6-8-8-8z"/><path d="m48 76c-5.5 0-10-4.5-10-10s4.5-10 10-10 10 4.5 10 10-4.5 10-10 10zm0-16c-3.3 0-6 2.7-6 6s2.7 6 6 6 6-2.7 6-6-2.7-6-6-6z"/><path d="m72 76c-5.5 0-10-4.5-10-10s4.5-10 10-10 10 4.5 10 10-4.5 10-10 10zm0-16c-3.3 0-6 2.7-6 6s2.7 6 6 6 6-2.7 6-6-2.7-6-6-6z"/><path d="m136.1 141.3 11.6-9.3h-51.7v-4h51.7l-11.6-9.3 14.2-4.7-14.2-4.7 11.6-9.3h-53.7l-4-8-4 8h-4l-4-8-4 8h-4l-4-8-4 8h-4l-4-8-4 8h-4l-4-8-3.1 6.2c-1.8-1.5-2.9-3.7-2.9-6.2 0-4.4 3.6-8 8-8l4 8 4-8h4l4 8 4-8h4l4 8 4-8h4l4 8 4-8h8v-36c0-6.7-1.7-12.2-4.9-16.2l5.3-5.3c1.6 1 3.5 1.5 5.7 1.5 1.1 0 2-.9 2-2s-.9-2-2-2c-3.8 0-6-2.2-6-6 0-1.1-.9-2-2-2s-2 .9-2 2c0 2.2.5 4.1 1.5 5.7l-5.3 5.3c-4-3.2-9.5-4.9-16.2-4.9h-24.1c-6.7 0-12.2 1.7-16.2 4.9l-5.3-5.3c1-1.6 1.5-3.5 1.5-5.7 0-1.1-.9-2-2-2s-2 .9-2 2c0 3.8-2.2 6-6 6-1.1 0-2 .9-2 2s.9 2 2 2c2.2 0 4.1-.5 5.7-1.5l5.3 5.3c-3.2 4-4.9 9.5-4.9 16.2v34.8l-20.2 11.2 18 10-18 10 18 10-18 10 18 10-18 10 20.1 11.2v6.8c0 2.2-1.8 4-4 4h-16v42.8l14.8-14.8h5.2c10.9 0 20.7-6.2 25.3-16h38.7c2.2 0 4 1.8 4 4v16h42.8l-14.8-14.8v-5.2c0-13.9-10.4-25.8-24-27.7v-.3h51.7l-11.6-9.3 14.2-4.7zm-40.1-37.3h40.3l-8.4 6.7 9.8 3.3-9.8 3.3 8.4 6.7h-40.3zm-72-16.6v13.2l-11.9-6.6zm0 20v13.2l-11.9-6.6zm0 20v13.2l-11.9-6.6zm-11.9 26.6 11.9-6.6v13.2zm15.9-106c0-12.9 7.1-20 20-20h24c12.9 0 20 7.1 20 20v32h-48c-6.6 0-12 5.4-12 12s5.4 12 12 12h48v32h44.3l-8.4 6.7 9.8 3.3-9.8 3.3 8.4 6.7h-44.3v7.9l1.8.1c12.5 1 22.2 11.5 22.2 24v6.8l9.2 9.2h-29.2v-12c0-4.4-3.6-8-8-8h-41.3l-.5 1.2c-3.7 9-12.4 14.8-22.2 14.8h-6.8l-9.2 9.2v-29.2h12c4.4 0 8-3.6 8-8z"/><path d="m54 232h8v48h-8z"/><path d="m84 280v-7h-12v-41h-8v48z"/><path d="m38 280c7.7 0 14-6.3 14-14v-34h-8v35c0 3.3-2.7 6-6 6h-2v-41h-8v48z"/><path d="m150 232c-7.7 0-14 6.3-14 14v34h8v-17h8v17h8v-48zm-6 24v-11c0-3.3 2.7-6 6-6h2v17z"/><path d="m186 246c0-7.7-6.3-14-14-14h-10v48h8v-17h2c3.3 0 6 2.7 6 6v11h8v-10c0-4.5-2.2-8.2-5.5-10.5 3.4-2.3 5.5-6 5.5-10.5zm-8 4c0 3.3-2.7 6-6 6h-2v-17h2c3.3 0 6 2.7 6 6z"/><path d="m234 232c-7.7 0-14 6.3-14 14v34h8v-16h8v16h8v-48zm-6 25v-12c0-3.3 2.7-6 6-6h2v18z"/><path d="m208 232h-20v7h6v41h8v-41h6z"/><path d="m210 232h8v48h-8z"/><path d="m118 245c0-3.3 2.7-6 6-6h2v41h8v-48h-10c-3.9 0-7.5 2.1-10 5.2-2.5-3.1-6.1-5.2-10-5.2h-10v48h8v-41h2c3.3 0 6 2.7 6 6v35h8z"/><path d="m246 232v48h8v-39.3c4.1 1.7 8 6.5 8 11.3v28h8v-48h-8v5.6c-3-3.5-7.2-5.6-12-5.6z"/><path d="m4 232v34c0 7.7 6.3 14 14 14h8v-7h-8c-3.3 0-6-2.7-6-6v-12h12v-7h-12v-9h14v-7z"/><path d="m296 248v-4c0-9-4.3-13-12-13s-12 5.3-12 13c0 15 16 15.1 16 24v1c0 3-1 5-4 5s-4-2-4-5v-5h-8v4c0 9.1 4.3 13 12 13s12-5.3 12-13c0-14.9-16-15-16-24v-1c0-3 1-5 4-5s4 2 4 5v5z"/></g></svg>