<?xml version="1.0"?>
<svg xmlns="http://www.w3.org/2000/svg" xmlns:xlink="http://www.w3.org/1999/xlink" viewBox="0 0 72 74" width="72" height="74"><defs><path id="a" d="M29.2 2.185S8.136 12.752 6.738 13.415C2.246 15.662 0 17.908 0 23.523v26.954c0 5.615 2.246 7.873 6.738 10.119L29.2 71.816c4.492 2.246 8.985 2.246 13.477 0 4.497-2.246 20.215-10.108 22.461-11.231 4.493-2.247 6.739-4.493 6.739-10.108V23.523c0-5.67-2.242-7.873-6.739-10.108L42.677 2.185c-4.492-2.247-8.985-2.247-13.477 0z"></path></defs><g fill="none" fill-rule="evenodd"><mask id="b" fill="#fff"><use xlink:href="#a"></use></mask><path fill="#9013FE" d="M30 6s-18.755 9.409-20 10c-4 2-6 4-6 9v24c0 5 2 7.01 6 9.01L30 68c4 2 8 2 12 0 4.004-1.999 18-9 20-10 4-2 6-4 6-9V25c0-5.048-1.996-7.01-6-9L42 6c-4-2-8-2-12 0z" mask="url(#b)"></path><path fill="#CF1BF4" fill-rule="nonzero" d="M36 .996c0 2.032-.363 2.94-1.664 4.893C32.636 8.44 32 10.032 32 13c0 2.969.637 4.561 2.336 7.11C35.636 22.06 36 22.968 36 25c0 2.031-.363 2.939-1.664 4.89C32.636 32.44 32 34.032 32 37c0 2.969.637 4.561 2.336 7.11C35.636 46.06 36 46.968 36 49c0 2.032-.363 2.94-1.664 4.893-1.7 2.55-2.336 4.142-2.336 7.11 0 2.97.637 4.562 2.336 7.109C35.637 70.062 36 70.969 36 73h4c0-2.969-.637-4.56-2.336-7.108C36.363 63.942 36 63.035 36 61.004c0-2.032.363-2.94 1.664-4.893C39.364 53.56 40 51.968 40 49c0-2.969-.637-4.561-2.336-7.11C36.364 39.94 36 39.032 36 37c0-2.031.363-2.939 1.664-4.89C39.364 29.56 40 27.968 40 25c0-2.969-.637-4.561-2.336-7.11C36.364 15.94 36 15.032 36 13c0-2.032.363-2.94 1.664-4.893C39.364 5.557 40 3.965 40 .997h-4zm8 0c0 2.032-.363 2.94-1.664 4.893C40.636 8.44 40 10.032 40 13c0 2.969.637 4.561 2.336 7.11C43.636 22.06 44 22.968 44 25c0 2.031-.363 2.939-1.664 4.89C40.636 32.44 40 34.032 40 37c0 2.969.637 4.561 2.336 7.11C43.636 46.06 44 46.968 44 49c0 2.032-.363 2.94-1.664 4.893-1.7 2.55-2.336 4.142-2.336 7.11 0 2.97.637 4.562 2.336 7.109C43.637 70.062 44 70.969 44 73h4c0-2.969-.637-4.56-2.336-7.108C44.363 63.942 44 63.035 44 61.004c0-2.032.363-2.94 1.664-4.893C47.364 53.56 48 51.968 48 49c0-2.969-.637-4.561-2.336-7.11C44.364 39.94 44 39.032 44 37c0-2.031.363-2.939 1.664-4.89C47.364 29.56 48 27.968 48 25c0-2.969-.637-4.561-2.336-7.11C44.364 15.94 44 15.032 44 13c0-2.032.363-2.94 1.664-4.893C47.364 5.557 48 3.965 48 .997h-4zm8 0c0 2.032-.363 2.94-1.664 4.893C48.636 8.44 48 10.032 48 13c0 2.969.637 4.561 2.336 7.11C51.636 22.06 52 22.968 52 25c0 2.031-.363 2.939-1.664 4.89C48.636 32.44 48 34.032 48 37c0 2.969.637 4.561 2.336 7.11C51.636 46.06 52 46.968 52 49c0 2.032-.363 2.94-1.664 4.893-1.7 2.55-2.336 4.142-2.336 7.11 0 2.97.637 4.562 2.336 7.109C51.637 70.062 52 70.969 52 73h4c0-2.969-.637-4.56-2.336-7.108C52.363 63.942 52 63.035 52 61.004c0-2.032.363-2.94 1.664-4.893C55.364 53.56 56 51.968 56 49c0-2.969-.637-4.561-2.336-7.11C52.364 39.94 52 39.032 52 37c0-2.031.363-2.939 1.664-4.89C55.364 29.56 56 27.968 56 25c0-2.969-.637-4.561-2.336-7.11C52.364 15.94 52 15.032 52 13c0-2.032.363-2.94 1.664-4.893C55.364 5.557 56 3.965 56 .997h-4zm8 0c0 2.032-.363 2.94-1.664 4.893C56.636 8.44 56 10.032 56 13c0 2.969.637 4.561 2.336 7.11C59.636 22.06 60 22.968 60 25c0 2.031-.363 2.939-1.664 4.89C56.636 32.44 56 34.032 56 37c0 2.969.637 4.561 2.336 7.11C59.636 46.06 60 46.968 60 49c0 2.032-.363 2.94-1.664 4.893-1.7 2.55-2.336 4.142-2.336 7.11 0 2.97.637 4.562 2.336 7.109C59.637 70.062 60 70.969 60 73h4c0-2.969-.637-4.56-2.336-7.108C60.363 63.942 60 63.035 60 61.004c0-2.032.363-2.94 1.664-4.893C63.364 53.56 64 51.968 64 49c0-2.969-.637-4.561-2.336-7.11C60.364 39.94 60 39.032 60 37c0-2.031.363-2.939 1.664-4.89C63.364 29.56 64 27.968 64 25c0-2.969-.637-4.561-2.336-7.11C60.364 15.94 60 15.032 60 13c0-2.032.363-2.94 1.664-4.893C63.364 5.557 64 3.965 64 .997h-4zm8 0c0 2.032-.363 2.94-1.664 4.893C64.636 8.44 64 10.032 64 13c0 2.969.637 4.561 2.336 7.11C67.636 22.06 68 22.968 68 25c0 2.031-.363 2.939-1.664 4.89C64.636 32.44 64 34.032 64 37c0 2.969.637 4.561 2.336 7.11C67.636 46.06 68 46.968 68 49c0 2.032-.363 2.94-1.664 4.893-1.7 2.55-2.336 4.142-2.336 7.11 0 2.97.637 4.562 2.336 7.109C67.637 70.062 68 70.969 68 73h4c0-2.969-.637-4.56-2.336-7.108C68.363 63.942 68 63.035 68 61.004c0-2.032.363-2.94 1.664-4.893C71.364 53.56 72 51.968 72 49c0-2.969-.637-4.561-2.336-7.11C68.364 39.94 68 39.032 68 37c0-2.031.363-2.939 1.664-4.89C71.364 29.56 72 27.968 72 25c0-2.969-.637-4.561-2.336-7.11C68.364 15.94 68 15.032 68 13c0-2.032.363-2.94 1.664-4.893C71.364 5.557 72 3.965 72 .997h-4zm-40 0c0 2.032-.363 2.94-1.664 4.893C24.636 8.44 24 10.032 24 13c0 2.969.637 4.561 2.336 7.11C27.636 22.06 28 22.968 28 25c0 2.031-.363 2.939-1.664 4.89C24.636 32.44 24 34.032 24 37c0 2.969.637 4.561 2.336 7.11C27.636 46.06 28 46.968 28 49c0 2.032-.363 2.94-1.664 4.893-1.7 2.55-2.336 4.142-2.336 7.11 0 2.97.637 4.562 2.336 7.109C27.637 70.062 28 70.969 28 73h4c0-2.969-.637-4.56-2.336-7.108C28.363 63.942 28 63.035 28 61.004c0-2.032.363-2.94 1.664-4.893C31.364 53.56 32 51.968 32 49c0-2.969-.637-4.561-2.336-7.11C28.364 39.94 28 39.032 28 37c0-2.031.363-2.939 1.664-4.89C31.364 29.56 32 27.968 32 25c0-2.969-.637-4.561-2.336-7.11C28.364 15.94 28 15.032 28 13c0-2.032.363-2.94 1.664-4.893C31.364 5.557 32 3.965 32 .997h-4zm-8 0c0 2.032-.363 2.94-1.664 4.893C16.636 8.44 16 10.032 16 13c0 2.969.637 4.561 2.336 7.11C19.636 22.06 20 22.968 20 25c0 2.031-.363 2.939-1.664 4.89C16.636 32.44 16 34.032 16 37c0 2.969.637 4.561 2.336 7.11C19.636 46.06 20 46.968 20 49c0 2.032-.363 2.94-1.664 4.893-1.7 2.55-2.336 4.142-2.336 7.11 0 2.97.637 4.562 2.336 7.109C19.637 70.062 20 70.969 20 73h4c0-2.969-.637-4.56-2.336-7.108C20.363 63.942 20 63.035 20 61.004c0-2.032.363-2.94 1.664-4.893C23.364 53.56 24 51.968 24 49c0-2.969-.637-4.561-2.336-7.11C20.364 39.94 20 39.032 20 37c0-2.031.363-2.939 1.664-4.89C23.364 29.56 24 27.968 24 25c0-2.969-.637-4.561-2.336-7.11C20.364 15.94 20 15.032 20 13c0-2.032.363-2.94 1.664-4.893C23.364 5.557 24 3.965 24 .997h-4zm-8 0c0 2.032-.363 2.94-1.664 4.893C8.636 8.44 8 10.032 8 13c0 2.969.637 4.561 2.336 7.11C11.636 22.06 12 22.968 12 25c0 2.031-.363 2.939-1.664 4.89C8.636 32.44 8 34.032 8 37c0 2.969.637 4.561 2.336 7.11C11.636 46.06 12 46.968 12 49c0 2.032-.363 2.94-1.664 4.893C8.636 56.443 8 58.035 8 61.003c0 2.97.637 4.562 2.336 7.109C11.637 70.062 12 70.969 12 73h4c0-2.969-.637-4.56-2.336-7.108C12.363 63.942 12 63.035 12 61.004c0-2.032.363-2.94 1.664-4.893C15.364 53.56 16 51.968 16 49c0-2.969-.637-4.561-2.336-7.11C12.364 39.94 12 39.032 12 37c0-2.031.363-2.939 1.664-4.89C15.364 29.56 16 27.968 16 25c0-2.969-.637-4.561-2.336-7.11C12.364 15.94 12 15.032 12 13c0-2.032.363-2.94 1.664-4.893C15.364 5.557 16 3.965 16 .997h-4zm-8 0c0 2.032-.363 2.94-1.664 4.893C.636 8.44 0 10.032 0 13c0 2.969.637 4.561 2.336 7.11C3.636 22.06 4 22.968 4 25c0 2.031-.363 2.939-1.664 4.89C.636 32.44 0 34.032 0 37c0 2.969.637 4.561 2.336 7.11C3.636 46.06 4 46.968 4 49c0 2.032-.363 2.94-1.664 4.893C.636 56.443 0 58.035 0 61.003c0 2.97.637 4.562 2.336 7.109C3.637 70.062 4 70.969 4 73h4c0-2.969-.637-4.56-2.336-7.108C4.363 63.942 4 63.035 4 61.004c0-2.032.363-2.94 1.664-4.893C7.364 53.56 8 51.968 8 49c0-2.969-.637-4.561-2.336-7.11C4.364 39.94 4 39.032 4 37c0-2.031.363-2.939 1.664-4.89C7.364 29.56 8 27.968 8 25c0-2.969-.637-4.561-2.336-7.11C4.364 15.94 4 15.032 4 13c0-2.032.363-2.94 1.664-4.893C7.364 5.557 8 3.965 8 .997H4z" mask="url(#b)"></path><path fill="#FFF" d="M36 47c-10 0-14-10-14-10s4-10 14-10 14 10 14 10-4 10-14 10zm0-3a7 7 0 1 0 0-14 7 7 0 0 0 0 14zm0-3a4 4 0 1 1 0-8 4 4 0 0 1 0 8z" mask="url(#b)"></path></g></svg>