<svg width="261" height="301" viewBox="0 0 261 301" fill="none" xmlns="http://www.w3.org/2000/svg">
<rect width="260" height="300" transform="translate(1)"/>
<path fill-rule="evenodd" clip-rule="evenodd" d="M35.6411 261.136L19.0022 220C11.6854 200.141 24.9743 178.267 45.0998 173.627C27.775 156.956 17.001 133.569 17.001 107.675C17.001 57.0441 58.1908 16 109.001 16C130.946 16 151.097 23.6565 166.909 36.4349C174.239 24.1966 187.659 16 203.001 16C226.197 16 245.001 34.7375 245.001 57.8514V89.7382C245.001 97.7762 242.727 105.285 238.785 111.66C242.727 118.036 245.001 125.545 245.001 133.583V165.469C245.001 173.507 242.727 181.016 238.785 187.392C242.727 193.767 245.001 201.276 245.001 209.314V241.201C245.001 264.314 226.197 284 203.001 284C179.805 284 161.001 264.314 161.001 241.201V236.589L85.8164 279.398C66.9667 290.13 43.0697 281.298 35.6411 261.136Z" fill="#2E3A48"/>
<path fill-rule="evenodd" clip-rule="evenodd" d="M4.07582 225.767L3.98912 225.532C-3.9035 204.104 4.19261 181.936 20.0438 168.752C8.04479 151.404 1.00212 130.355 1.00212 107.675C1.00212 48.1541 49.3954 0 108.972 0C129.046 0 147.867 5.47563 163.984 15.0084C174.275 5.68906 187.946 0 202.946 0C234.916 0 260.93 25.8475 260.93 57.8514V89.7382C260.93 97.4816 259.397 104.89 256.617 111.66C259.397 118.431 260.93 125.839 260.93 133.583V165.469C260.93 173.213 259.397 180.621 256.617 187.392C259.397 194.162 260.93 201.57 260.93 209.314V241.201C260.93 272.737 235.378 300 202.946 300C177.951 300 157.042 283.807 148.768 261.944L93.7084 293.302C66.3415 308.888 31.6621 296.161 20.7186 266.924L4.07582 225.767ZM35.6326 261.136L18.9983 220C13.7358 205.713 19.1356 190.383 30.0719 181.177C34.3368 177.587 39.4437 174.929 45.0886 173.627C40.9206 169.615 37.1319 165.214 33.7812 160.483C23.2084 145.555 16.9977 127.338 16.9977 107.675C16.9977 57.0441 58.176 16 108.972 16C125.16 16 140.371 20.1684 153.584 27.4872C158.278 30.0873 162.72 33.0851 166.864 36.4349C168.885 33.059 171.37 29.9907 174.23 27.3171C181.74 20.2983 191.839 16 202.946 16C226.135 16 244.934 34.7375 244.934 57.8514V89.7382C244.934 97.7762 242.661 105.285 238.72 111.66C242.661 118.036 244.934 125.545 244.934 133.583V165.469C244.934 173.507 242.661 181.016 238.72 187.392C242.661 193.767 244.934 201.276 244.934 209.314V241.201C244.934 264.314 226.135 284 202.946 284C184.164 284 168.262 271.087 162.896 253.897C161.637 249.863 160.958 245.594 160.958 241.201V236.589L85.7939 279.398C66.9495 290.13 43.0591 281.298 35.6326 261.136Z" fill="#FC5457"/>
<path d="M173 108C173 143.346 144.346 172 109 172C73.6538 172 45 143.346 45 108C45 72.6538 73.6538 44 109 44C144.346 44 173 72.6538 173 108Z" fill="#F55797"/>
<mask id="mask0" mask-type="alpha" maskUnits="userSpaceOnUse" x="45" y="44" width="128" height="128">
<path d="M173 108C173 143.346 144.346 172 109 172C73.6538 172 45 143.346 45 108C45 72.6538 73.6538 44 109 44C144.346 44 173 72.6538 173 108Z" fill="#D6D6D6"/>
</mask>
<g mask="url(#mask0)">
<path fill-rule="evenodd" clip-rule="evenodd" d="M124.381 81.107C122.884 74.8415 113.887 75.3124 113.042 81.7004L110.721 99.2689C109.227 110.572 93.0496 110.727 91.3419 99.4552C90.763 95.6335 85.2472 95.7827 84.8725 99.6301L82.3295 125.744C81.599 133.246 75.6522 137.267 69.8498 137.65C64.0494 138.034 57.6277 134.834 55.9036 127.508C54.8838 123.174 53.8603 118.832 52.8498 114.55C52.008 110.983 49.0331 109.29 45.8112 109.496C42.582 109.702 39.7861 111.777 39.346 115.442C37.699 129.16 35.8495 143.463 33.9474 156.109C33.0065 162.364 28.555 166.175 23.4783 166.498C18.4498 166.818 13.4888 163.675 11.5114 157.742L-0.312221 122.267C-2.37748 116.07 -11.1787 116.376 -12.8157 122.701L-34.0201 204.632L-40.3359 202.973L-19.1315 121.042C-15.8576 108.392 1.74485 107.781 5.87533 120.174L17.699 155.649C18.7933 158.933 21.1672 160.056 23.067 159.935C24.9188 159.818 26.9891 158.481 27.4941 155.124C29.3825 142.569 31.2232 128.337 32.8662 114.653C33.7527 107.27 39.6386 103.301 45.3984 102.934C51.1654 102.566 57.4866 105.769 59.1999 113.029C60.2106 117.312 61.2345 121.656 62.2546 125.991C63.1002 129.584 66.1359 131.306 69.4224 131.089C72.707 130.872 75.4765 128.77 75.8337 125.102L78.3767 98.9881C79.5013 87.4401 96.0565 86.9926 97.7942 98.4632C98.3632 102.219 103.753 102.167 104.251 98.4011L106.572 80.8327C108.371 67.2242 127.538 66.221 130.727 79.5684L137.665 108.61C139.327 115.568 149.266 115.221 150.447 108.164L153.63 89.1265C156.069 74.5436 176.85 74.4891 179.364 89.0591L188.256 140.597C189.533 147.998 200.145 147.803 201.153 140.36L201.752 135.939C203.691 121.635 224.161 121.472 226.323 135.744L228.477 149.961C228.801 152.102 231.732 152.422 232.504 150.402C235.241 143.243 245.172 142.91 248.375 149.87L272.553 202.42L266.631 205.185L242.453 152.635C241.674 150.944 239.261 151.024 238.595 152.764C235.418 161.078 223.359 159.76 222.024 150.953L219.87 136.736C218.845 129.968 209.139 130.045 208.219 136.828L207.62 141.25C205.603 156.136 184.38 156.525 181.826 141.723L172.934 90.1852C171.677 82.9002 161.286 82.9273 160.067 90.2189L156.883 109.256C154.523 123.371 134.643 124.065 131.319 110.149L124.381 81.107Z" fill="white"/>
</g>
<path d="M164.166 187.728C171.698 186.809 175.057 196.783 168.477 200.528L71.4663 255.739C67.7189 257.872 62.9369 256.146 61.4619 252.128L46.2239 210.624C44.6969 206.465 47.4776 201.978 51.9179 201.435L164.166 187.728Z" fill="#7BD0EB"/>
<rect x="189" y="44" width="28" height="60" rx="14" fill="#FC5457"/>
<rect x="197" y="56" width="12" height="36" rx="6" fill="black" fill-opacity="0.25"/>
<rect x="189" y="120" width="28" height="60" rx="14" fill="#FFA713"/>
<rect x="197" y="132" width="12" height="36" rx="6" fill="black" fill-opacity="0.25"/>
<rect x="189" y="196" width="28" height="60" rx="14" fill="#6AD32C"/>
<rect x="197" y="208" width="12" height="36" rx="6" fill="black" fill-opacity="0.25"/>
<circle cx="75" cy="224" r="12" fill="black" fill-opacity="0.25"/>
</svg>
