<?xml version="1.0"?>
<svg id="Layer_1" data-name="Layer 1" xmlns="http://www.w3.org/2000/svg" xmlns:xlink="http://www.w3.org/1999/xlink" viewBox="0 0 164 138" width="164" height="138"><defs><style>.cls-1{fill:url(#linear-gradient)}.cls-2{fill:#1960c4}.cls-3,.cls-4{fill-rule:evenodd}.cls-3{fill:url(#linear-gradient-2)}.cls-4{fill:url(#linear-gradient-3)}</style><linearGradient id="linear-gradient" x1="69" y1="98" x2="69" gradientUnits="userSpaceOnUse"><stop offset="0" stop-color="#1d40b2"></stop><stop offset="1" stop-color="#1680d6"></stop></linearGradient><linearGradient id="linear-gradient-2" x1="134.63" y1="108.62" x2="157.29" y2="102.55" gradientUnits="userSpaceOnUse"><stop offset="0" stop-color="#1c1c1c"></stop><stop offset="1" stop-color="#3d3e3f"></stop></linearGradient><linearGradient id="linear-gradient-3" x1="123.5" y1="114.07" x2="139.85" y2="109.69" xlink:href="#linear-gradient-2"></linearGradient></defs><title>ximgproxy copy</title><path class="cls-1" d="M138 18V0h-18v5H78V0H60v5H18V0H0v18h5v22H0v18h5v22H0v18h18v-5h42v5h18v-5h42v5h18V80h-5V58h5V40h-5V18zM64 4h10v10H64zM4 14V4h10v10zm0 40V44h10v10zm10 40H4V84h10zm60 0H64V84h10zm46-9H78v-5H60v5H18v-5h-5V58h5V40h-5V18h5v-5h42v5h18v-5h42v5h5v22h-5v18h5v22h-5zm14-1v10h-10V84zm0-40v10h-10V44zm-10-30V4h10v10z"></path><path class="cls-2" d="M71 42h-4v5h-5v4h5v5h4v-5h5v-4h-5v-5z"></path><path class="cls-3" d="M143.19 122.18h19.36L129.37 89l13.82 33.18z"></path><path class="cls-4" d="M129.37 89v47l13.82-13.82"></path></svg>